<?xml version="1.0" encoding="UTF-8"?>
<svg id="Layer_2" data-name="Layer 2" xmlns="http://www.w3.org/2000/svg" viewBox="0 0 500 500">
  <defs>
    <style>
      .cls-1 {
        fill: #991e2b;
      }

      .cls-1, .cls-2 {
        stroke-width: 0px;
      }

      .cls-2 {
        fill: #fff;
      }
    </style>
  </defs>
  <g id="Layer_1-2" data-name="Layer 1">
    <g>
      <circle class="cls-1" cx="250" cy="250" r="250"/>
      <path class="cls-2" d="m403.67,296.34c-2.28,19.54-7.83,37.25-16.69,53.15-8.86,15.91-20.1,29.54-33.73,40.89-13.63,11.36-29.2,20.22-46.68,26.57-17.49,6.36-36.45,9.54-56.9,9.54-22.72,0-43.51-3.75-62.35-11.25-18.86-7.49-35.1-18.85-48.72-34.07-13.63-15.21-24.19-34.07-31.69-56.56-7.49-22.49-11.24-48.72-11.24-78.71s3.75-55.88,11.24-77.68c7.5-21.8,18.06-39.63,31.69-53.49,13.63-13.85,30.09-24.19,49.41-31.01,19.3-6.81,40.77-10.22,64.39-10.22,21.81,0,41.68,2.96,59.63,8.86,17.95,5.91,33.61,14.54,47.02,25.89,13.39,11.36,23.96,24.99,31.68,40.89,7.72,15.91,12.27,33.62,13.63,53.15h-89.27c-2.28-17.26-9.2-30.77-20.79-40.55-11.59-9.76-25.79-14.65-42.59-14.65-9.54,0-18.4,1.6-26.58,4.77-8.18,3.19-15.33,8.52-21.47,16.02-6.13,7.5-11.02,17.5-14.65,29.98-3.64,12.5-5.45,27.83-5.45,46,0,36.8,6.58,64.05,19.76,81.77,13.17,17.72,28.39,26.57,45.65,26.57s32.03-4.77,44.3-14.31c12.27-9.54,19.3-23.39,21.13-41.57h89.27Z"/>
    </g>
  </g>
</svg>