<?xml version="1.0" encoding="UTF-8"?>
<svg id="Layer_2" data-name="Layer 2" xmlns="http://www.w3.org/2000/svg" viewBox="0 0 529.84 108.23">
  <defs>
    <style>
      .cls-1 {
        fill: #fbfdf9;
      }
    </style>
  </defs>
  <g id="Layer_1-2" data-name="Layer 1">
    <g>
      <path class="cls-1" d="M51.71,61.21c-.38,3.28-1.32,6.25-2.8,8.92-1.49,2.67-3.38,4.96-5.66,6.87-2.29,1.91-4.9,3.39-7.84,4.46-2.94,1.07-6.12,1.6-9.55,1.6-3.81,0-7.3-.63-10.47-1.89-3.17-1.26-5.89-3.16-8.18-5.72-2.29-2.55-4.06-5.72-5.32-9.5-1.26-3.78-1.89-8.18-1.89-13.22s.63-9.38,1.89-13.04c1.26-3.66,3.03-6.65,5.32-8.98,2.29-2.33,5.05-4.06,8.3-5.21,3.24-1.14,6.84-1.72,10.81-1.72,3.66,0,7,.5,10.01,1.49,3.01.99,5.64,2.44,7.9,4.35,2.25,1.91,4.02,4.2,5.32,6.87,1.3,2.67,2.06,5.65,2.29,8.92h-14.99c-.38-2.9-1.54-5.17-3.49-6.81-1.95-1.64-4.33-2.46-7.15-2.46-1.6,0-3.09.27-4.46.8-1.37.54-2.57,1.43-3.6,2.69-1.03,1.26-1.85,2.94-2.46,5.03-.61,2.1-.91,4.67-.91,7.72,0,6.18,1.1,10.75,3.32,13.73,2.21,2.97,4.77,4.46,7.67,4.46s5.38-.8,7.44-2.4c2.06-1.6,3.24-3.93,3.55-6.98h14.99Z"/>
      <path class="cls-1" d="M57.21,81.57V25.28h13.96v6.75c1.22-1.91,2.5-3.39,3.83-4.46,1.33-1.07,2.71-1.89,4.12-2.46,1.41-.57,2.84-.93,4.29-1.09,1.45-.15,2.94-.23,4.46-.23h1.95v15.22c-1.37-.23-2.75-.34-4.12-.34-9.08,0-13.62,4.54-13.62,13.62v29.29h-14.87Z"/>
      <path class="cls-1" d="M106.08,57.32c.23,4.27,1.47,7.67,3.72,10.18,2.25,2.52,5.21,3.78,8.87,3.78,2.44,0,4.6-.55,6.46-1.66,1.87-1.11,3.07-2.65,3.6-4.63h15.33c-1.75,5.8-4.81,10.26-9.15,13.39-4.35,3.13-9.54,4.69-15.56,4.69-18.76,0-28.15-10.22-28.15-30.66,0-4.35.61-8.28,1.83-11.79,1.22-3.51,2.99-6.52,5.32-9.04,2.33-2.52,5.17-4.44,8.52-5.78,3.36-1.33,7.21-2,11.56-2,8.7,0,15.27,2.78,19.74,8.35,4.46,5.57,6.69,13.96,6.69,25.17h-38.79ZM129.54,47.94c-.08-2.06-.44-3.87-1.09-5.43-.65-1.56-1.51-2.86-2.57-3.89-1.07-1.03-2.29-1.79-3.66-2.29-1.37-.49-2.78-.74-4.23-.74-2.97,0-5.55,1.09-7.72,3.26-2.17,2.17-3.41,5.21-3.72,9.1h23Z"/>
      <path class="cls-1" d="M186.4,81.57c-.46-1.45-.76-3.13-.92-5.03-1.75,1.98-4.08,3.57-6.98,4.75-2.9,1.18-6.25,1.77-10.07,1.77-6.48,0-11.23-1.43-14.24-4.29-3.01-2.86-4.52-6.58-4.52-11.16,0-4.04.65-7.27,1.95-9.67,1.3-2.4,3.09-4.29,5.38-5.66,2.29-1.37,5.01-2.38,8.18-3.03,3.16-.65,6.62-1.24,10.36-1.77,3.74-.53,6.25-1.24,7.55-2.12,1.3-.88,1.95-2.31,1.95-4.29,0-1.83-.86-3.26-2.57-4.29-1.72-1.03-4.02-1.54-6.92-1.54-3.43,0-5.89.76-7.38,2.29-1.49,1.53-2.42,3.55-2.8,6.06h-13.84c.08-2.9.55-5.57,1.43-8.01.88-2.44,2.29-4.54,4.23-6.29,1.95-1.75,4.48-3.11,7.61-4.06,3.13-.95,6.94-1.43,11.44-1.43s8.18.5,11.27,1.49c3.09.99,5.57,2.42,7.44,4.29,1.87,1.87,3.22,4.2,4.06,6.98.84,2.79,1.26,5.93,1.26,9.44v35.58h-13.84ZM185.37,54c-.76.76-1.87,1.37-3.32,1.83-1.45.46-3.55.95-6.29,1.49-4.27.84-7.21,1.91-8.81,3.2-1.6,1.3-2.4,3.17-2.4,5.61,0,4.2,2.4,6.29,7.21,6.29,1.91,0,3.68-.32,5.32-.97,1.64-.65,3.05-1.52,4.23-2.63,1.18-1.11,2.13-2.4,2.86-3.89.72-1.49,1.09-3.07,1.09-4.75l.11-6.18Z"/>
      <path class="cls-1" d="M238.65,44.5h13.84v16.02c0,2.97-.44,5.82-1.32,8.52-.88,2.71-2.25,5.11-4.12,7.21-1.87,2.1-4.23,3.76-7.09,4.98-2.86,1.22-6.27,1.83-10.24,1.83s-7.63-.61-10.53-1.83c-2.9-1.22-5.28-2.86-7.15-4.92-1.87-2.06-3.22-4.46-4.06-7.21-.84-2.75-1.26-5.64-1.26-8.7V10.06h14.65v15.22h31.12v10.53h-31.12v23.11c0,3.59.67,6.35,2,8.3,1.33,1.94,3.53,2.92,6.58,2.92s5.17-.95,6.58-2.86c1.41-1.91,2.12-4.61,2.12-8.12v-14.65Z"/>
      <path class="cls-1" d="M259.29,81.57V25.28h14.87v56.29h-14.87ZM266.85,0c15.33,0,15.22,20.71,0,20.71s-15.22-20.71,0-20.71Z"/>
      <path class="cls-1" d="M316.27,81.57c-.46-1.45-.76-3.13-.92-5.03-1.75,1.98-4.08,3.57-6.98,4.75-2.9,1.18-6.25,1.77-10.07,1.77-6.48,0-11.23-1.43-14.24-4.29-3.01-2.86-4.52-6.58-4.52-11.16,0-4.04.65-7.27,1.95-9.67,1.3-2.4,3.09-4.29,5.38-5.66,2.29-1.37,5.01-2.38,8.18-3.03,3.16-.65,6.62-1.24,10.36-1.77,3.74-.53,6.25-1.24,7.55-2.12,1.3-.88,1.95-2.31,1.95-4.29,0-1.83-.86-3.26-2.57-4.29-1.72-1.03-4.02-1.54-6.92-1.54-3.43,0-5.89.76-7.38,2.29-1.49,1.53-2.42,3.55-2.8,6.06h-13.84c.08-2.9.55-5.57,1.43-8.01.88-2.44,2.29-4.54,4.23-6.29,1.95-1.75,4.48-3.11,7.61-4.06,3.13-.95,6.94-1.43,11.44-1.43s8.18.5,11.27,1.49c3.09.99,5.57,2.42,7.44,4.29,1.87,1.87,3.22,4.2,4.06,6.98.84,2.79,1.26,5.93,1.26,9.44v35.58h-13.84ZM315.24,54c-.76.76-1.87,1.37-3.32,1.83-1.45.46-3.55.95-6.29,1.49-4.27.84-7.21,1.91-8.81,3.2-1.6,1.3-2.4,3.17-2.4,5.61,0,4.2,2.4,6.29,7.21,6.29,1.91,0,3.68-.32,5.32-.97,1.64-.65,3.05-1.52,4.23-2.63,1.18-1.11,2.13-2.4,2.86-3.89.72-1.49,1.09-3.07,1.09-4.75l.11-6.18Z"/>
      <path class="cls-1" d="M373.05,81.57v-34.1c0-4.35-.73-7.28-2.17-8.81-1.45-1.52-3.93-2.29-7.44-2.29-7.7,0-11.56,4.31-11.56,12.93v32.27h-14.87V25.28h14.19v8.24c1.75-3.2,4.08-5.62,6.98-7.27,2.9-1.64,6.64-2.46,11.21-2.46,2.67,0,5.15.4,7.44,1.2s4.25,2,5.89,3.6c1.64,1.6,2.94,3.57,3.89,5.89.95,2.33,1.43,5.02,1.43,8.07v39.02h-14.99Z"/>
      <path class="cls-1" d="M444.95,61.21c-.38,3.28-1.32,6.25-2.8,8.92-1.49,2.67-3.38,4.96-5.66,6.87-2.29,1.91-4.9,3.39-7.84,4.46-2.94,1.07-6.12,1.6-9.55,1.6-3.81,0-7.3-.63-10.47-1.89-3.17-1.26-5.89-3.16-8.18-5.72-2.29-2.55-4.06-5.72-5.32-9.5-1.26-3.78-1.89-8.18-1.89-13.22s.63-9.38,1.89-13.04c1.26-3.66,3.03-6.65,5.32-8.98,2.29-2.33,5.05-4.06,8.3-5.21,3.24-1.14,6.84-1.72,10.81-1.72,3.66,0,7,.5,10.01,1.49,3.01.99,5.64,2.44,7.9,4.35,2.25,1.91,4.02,4.2,5.32,6.87,1.3,2.67,2.06,5.65,2.29,8.92h-14.99c-.38-2.9-1.54-5.17-3.49-6.81-1.95-1.64-4.33-2.46-7.15-2.46-1.6,0-3.09.27-4.46.8-1.37.54-2.57,1.43-3.6,2.69-1.03,1.26-1.85,2.94-2.46,5.03-.61,2.1-.91,4.67-.91,7.72,0,6.18,1.1,10.75,3.32,13.73,2.21,2.97,4.77,4.46,7.67,4.46s5.38-.8,7.44-2.4c2.06-1.6,3.24-3.93,3.55-6.98h14.99Z"/>
      <path class="cls-1" d="M484.88,74.14c-1.07,2.52-3,4.48-5.78,5.89-2.79,1.41-5.93,2.12-9.44,2.12-2.97,0-5.72-.48-8.24-1.43-2.52-.95-4.69-2.33-6.52-4.12-1.83-1.79-3.26-3.93-4.29-6.41-1.03-2.48-1.54-5.28-1.54-8.41V25.28h14.87v34.32c0,7.02,3.16,10.53,9.5,10.53,3.43,0,6.2-.99,8.29-2.97,2.1-1.98,3.15-4.5,3.15-7.55V25.28h14.87v57.78c0,3.96-.67,7.51-2,10.64-1.34,3.13-3.17,5.76-5.49,7.9-2.33,2.13-5.07,3.78-8.24,4.92-3.17,1.14-6.54,1.72-10.13,1.72-8.31,0-14.53-2.1-18.65-6.29-4.12-4.2-6.18-9.95-6.18-17.28h13.84c0,3.36.97,5.99,2.92,7.9,1.95,1.91,4.86,2.86,8.75,2.86,1.37,0,2.67-.29,3.89-.86,1.22-.57,2.31-1.37,3.26-2.4.95-1.03,1.72-2.31,2.29-3.83.57-1.53.86-3.2.86-5.03v-9.15Z"/>
      <path class="cls-1" d="M518.38,61.78c15.33,0,15.22,20.71,0,20.71s-15.22-20.71,0-20.71Z"/>
    </g>
  </g>
</svg>